<svg width="162" height="171" version="1.1" xmlns="http://www.w3.org/2000/svg" desc="Created with imagetracer.js version 1.2.6" ><path fill="rgb(53,53,53)" stroke="rgb(53,53,53)" stroke-width="1" opacity="1" d="M 32.5 37 L 53.5 37 L 54 38.5 L 52.5 38 L 32.5 38 L 32.5 37 Z " /><path fill="rgb(53,53,53)" stroke="rgb(53,53,53)" stroke-width="1" opacity="1" d="M 70.5 37 L 88 37.5 L 70.5 38 L 70.5 37 Z " /><path fill="rgb(53,53,53)" stroke="rgb(53,53,53)" stroke-width="1" opacity="1" d="M 104 37 L 127 37 L 127 59 L 124 57.5 L 126 57.5 L 126 38 L 106.5 38 L 107.5 40 L 111 42.5 L 108.5 41 L 104 39 L 104 37 Z " /><path fill="rgb(53,53,53)" stroke="rgb(53,53,53)" stroke-width="1" opacity="1" d="M 89.5 38 Q 108.9 42.1 118 56.5 L 106.5 46 Q 99.9 40.6 89.5 39 L 89.5 38 Z " /><path fill="rgb(53,53,53)" stroke="rgb(53,53,53)" stroke-width="1" opacity="1" d="M 51.5 39 L 50.5 41 L 51.5 39 Z " /><path fill="rgb(53,53,53)" stroke="rgb(53,53,53)" stroke-width="1" opacity="1" d="M 63.5 39 L 66 39.5 L 61.5 41 L 61.5 40 L 63.5 39 Z " /><path fill="rgb(53,53,53)" stroke="rgb(53,53,53)" stroke-width="1" opacity="1" d="M 48.5 41 L 46.5 44 L 39.5 50 L 45.5 43 L 48.5 41 Z " /><path fill="rgb(53,53,53)" stroke="rgb(53,53,53)" stroke-width="1" opacity="1" d="M 55.5 43 L 54.5 45 L 51.5 47 L 53.5 44 L 55.5 43 Z " /><path fill="rgb(53,53,53)" stroke="rgb(53,53,53)" stroke-width="1" opacity="1" d="M 112.5 43 L 115.5 47 L 112.5 43 Z " /><path fill="rgb(53,53,53)" stroke="rgb(53,53,53)" stroke-width="1" opacity="1" d="M 49.5 47 L 41.5 56 L 49.5 47 Z " /><path fill="rgb(53,53,53)" stroke="rgb(53,53,53)" stroke-width="1" opacity="1" d="M 117.5 48 L 121.5 53 L 117.5 48 Z " /><path fill="rgb(53,53,53)" stroke="rgb(53,53,53)" stroke-width="1" opacity="1" d="M 38.5 51 L 36 54.5 L 34 59 L 32 58.5 L 38.5 51 Z " /><path fill="rgb(53,53,53)" stroke="rgb(53,53,53)" stroke-width="1" opacity="1" d="M 71.5 52 L 74 52.5 L 71.5 53 L 71.5 52 Z " /><path fill="rgb(53,53,53)" stroke="rgb(53,53,53)" stroke-width="1" opacity="1" d="M 83.5 52 L 87 52.5 L 83.5 53 L 83.5 52 Z " /><path fill="rgb(53,53,53)" stroke="rgb(53,53,53)" stroke-width="1" opacity="1" d="M 88.5 53 L 91 53.5 L 88.5 54 L 88.5 53 Z " /><path fill="rgb(53,53,53)" stroke="rgb(53,53,53)" stroke-width="1" opacity="1" d="M 65.5 54 L 67 54.5 L 58.5 60 L 61.5 56 L 65.5 54 Z " /><path fill="rgb(53,53,53)" stroke="rgb(53,53,53)" stroke-width="1" opacity="1" d="M 92.5 54 L 106 64.5 L 100.5 60 L 93.5 56 L 92.5 54 Z " /><path fill="rgb(53,53,53)" stroke="rgb(53,53,53)" stroke-width="1" opacity="1" d="M 122.5 54 L 123.5 56 L 122.5 54 Z " /><path fill="rgb(53,53,53)" stroke="rgb(53,53,53)" stroke-width="1" opacity="1" d="M 40.5 57 L 39.5 59 L 40.5 57 Z " /><path fill="rgb(53,53,53)" stroke="rgb(53,53,53)" stroke-width="1" opacity="1" d="M 73.5 57 L 85 57.5 L 73.5 58 L 73.5 57 Z " /><path fill="rgb(53,53,53)" stroke="rgb(53,53,53)" stroke-width="1" opacity="1" d="M 69.5 58 L 72 58.5 Q 61.9 60.9 57 68.5 L 53.5 76 L 53 74.5 Q 56.3 65.8 63.5 61 L 69.5 58 Z " /><path fill="rgb(53,53,53)" stroke="rgb(53,53,53)" stroke-width="1" opacity="1" d="M 86.5 58 Q 97.9 60.6 103 69.5 L 106 78.5 L 105 78.5 Q 103.1 66.9 94.5 62 L 86.5 59 L 86.5 58 Z " /><path fill="rgb(53,53,53)" stroke="rgb(53,53,53)" stroke-width="1" opacity="1" d="M 118.5 58 Q 125 65 126 77.5 L 125 77.5 L 123 67.5 L 118.5 58 Z " /><path fill="rgb(53,53,53)" stroke="rgb(53,53,53)" stroke-width="1" opacity="1" d="M 56.5 60 L 56 61.5 Q 49.5 68 47 78.5 L 47 90.5 L 52 102.5 L 55 105.5 L 51 102.5 L 46 90.5 L 46 78.5 Q 48.9 66.9 56.5 60 Z " /><path fill="rgb(53,53,53)" stroke="rgb(53,53,53)" stroke-width="1" opacity="1" d="M 106.5 66 L 110 72.5 L 109 72.5 L 106.5 66 Z " /><path fill="rgb(53,53,53)" stroke="rgb(53,53,53)" stroke-width="1" opacity="1" d="M 78.5 71 L 81 71.5 L 78.5 72 L 78.5 71 Z " /><path fill="rgb(53,53,53)" stroke="rgb(53,53,53)" stroke-width="1" opacity="1" d="M 72.5 73 L 71.5 75 Q 69.3 74.3 70 76.5 Q 65.9 79.4 67 87.5 L 68 89.5 L 67 89.5 L 66 81.5 L 70.5 74 L 72.5 73 Z " /><path fill="rgb(53,53,53)" stroke="rgb(53,53,53)" stroke-width="1" opacity="1" d="M 85.5 73 L 90 76.5 L 91 78.5 L 89 77.5 L 87.5 75 L 85.5 73 Z " /><path fill="rgb(53,53,53)" stroke="rgb(53,53,53)" stroke-width="1" opacity="1" d="M 32.5 75 L 33 80.5 L 32 80.5 L 32.5 75 Z " /><path fill="rgb(53,53,53)" stroke="rgb(53,53,53)" stroke-width="1" opacity="1" d="M 76.5 77 Q 83 76 85 79.5 L 83.5 79 L 76.5 78 L 72.5 83 L 72 81.5 L 73 79 L 76.5 77 Z " /><path fill="rgb(53,53,53)" stroke="rgb(53,53,53)" stroke-width="1" opacity="1" d="M 111.5 77 L 112 82.5 L 111 82.5 L 111.5 77 Z " /><path fill="rgb(53,53,53)" stroke="rgb(53,53,53)" stroke-width="1" opacity="1" d="M 52.5 78 L 53 80.5 L 52 80.5 L 52.5 78 Z " /><path fill="rgb(53,53,53)" stroke="rgb(53,53,53)" stroke-width="1" opacity="1" d="M 126.5 79 L 127 90.5 Q 124.2 107.7 113.5 117 L 117 112.5 L 125 95.5 L 126.5 79 Z " /><path fill="rgb(53,53,53)" stroke="rgb(53,53,53)" stroke-width="1" opacity="1" d="M 91.5 80 L 92 82.5 L 91 82.5 L 91.5 80 Z " /><path fill="rgb(53,53,53)" stroke="rgb(53,53,53)" stroke-width="1" opacity="1" d="M 106.5 80 L 107 88.5 Q 104.6 101.1 95.5 107 L 101 100.5 Q 106.7 93.2 106.5 80 Z " /><path fill="rgb(53,53,53)" stroke="rgb(53,53,53)" stroke-width="1" opacity="1" d="M 85.5 81 Q 88 82 87 86.5 L 83.5 91 L 76.5 92 L 72 86.5 L 73 86.5 L 76.5 91 Q 81.9 91.6 84 90 L 86 86.5 L 86 82.5 L 85.5 81 Z " /><path fill="rgb(53,53,53)" stroke="rgb(53,53,53)" stroke-width="1" opacity="1" d="M 91.5 86 L 92 88.5 L 91 88.5 L 91.5 86 Z " /><path fill="rgb(53,53,53)" stroke="rgb(53,53,53)" stroke-width="1" opacity="1" d="M 111.5 86 L 112 91.5 L 111 91.5 L 111.5 86 Z " /><path fill="rgb(53,53,53)" stroke="rgb(53,53,53)" stroke-width="1" opacity="1" d="M 32.5 88 L 33 93.5 L 32 93.5 L 32.5 88 Z " /><path fill="rgb(53,53,53)" stroke="rgb(53,53,53)" stroke-width="1" opacity="1" d="M 52.5 88 L 53 90.5 L 52 90.5 L 52.5 88 Z " /><path fill="rgb(53,53,53)" stroke="rgb(53,53,53)" stroke-width="1" opacity="1" d="M 90.5 90 L 89.5 92 L 90.5 90 Z " /><path fill="rgb(53,53,53)" stroke="rgb(53,53,53)" stroke-width="1" opacity="1" d="M 68.5 91 Q 71 95.5 77 96.5 L 74.5 97 L 68.5 91 Z " /><path fill="rgb(53,53,53)" stroke="rgb(53,53,53)" stroke-width="1" opacity="1" d="M 88.5 93 L 87.5 95 L 85.5 96 L 86.5 94 L 88.5 93 Z " /><path fill="rgb(53,53,53)" stroke="rgb(53,53,53)" stroke-width="1" opacity="1" d="M 54.5 96 L 57 99.5 L 55 98.5 L 54.5 96 Z " /><path fill="rgb(53,53,53)" stroke="rgb(53,53,53)" stroke-width="1" opacity="1" d="M 57.5 101 L 60.5 105 L 57.5 101 Z " /><path fill="rgb(53,53,53)" stroke="rgb(53,53,53)" stroke-width="1" opacity="1" d="M 35.5 102 L 37 104.5 L 35 103.5 L 35.5 102 Z " /><path fill="rgb(53,53,53)" stroke="rgb(53,53,53)" stroke-width="1" opacity="1" d="M 106.5 102 L 105.5 104 L 106.5 102 Z " /><path fill="rgb(53,53,53)" stroke="rgb(53,53,53)" stroke-width="1" opacity="1" d="M 104.5 105 L 100.5 110 L 91.5 115 L 91.5 114 Q 100 111.5 104.5 105 Z " /><path fill="rgb(53,53,53)" stroke="rgb(53,53,53)" stroke-width="1" opacity="1" d="M 63.5 106 L 64.5 108 L 63.5 106 Z " /><path fill="rgb(53,53,53)" stroke="rgb(53,53,53)" stroke-width="1" opacity="1" d="M 55.5 107 L 56.5 109 L 55.5 107 Z " /><path fill="rgb(53,53,53)" stroke="rgb(53,53,53)" stroke-width="1" opacity="1" d="M 93.5 107 L 92.5 109 L 89.5 110 L 89.5 109 L 93.5 107 Z " /><path fill="rgb(53,53,53)" stroke="rgb(53,53,53)" stroke-width="1" opacity="1" d="M 66.5 108 L 69 109.5 L 67.5 110 L 66.5 108 Z " /><path fill="rgb(53,53,53)" stroke="rgb(53,53,53)" stroke-width="1" opacity="1" d="M 32.5 109 L 33.5 111 Q 30.7 111.7 32.5 109 Z " /><path fill="rgb(53,53,53)" stroke="rgb(53,53,53)" stroke-width="1" opacity="1" d="M 58.5 109 L 60.5 112 L 58.5 109 Z " /><path fill="rgb(53,53,53)" stroke="rgb(53,53,53)" stroke-width="1" opacity="1" d="M 125.5 109 L 127 110.5 L 127 131.5 L 126 131.5 L 125.5 111 L 122.5 115 L 123 113.5 L 125.5 109 Z " /><path fill="rgb(53,53,53)" stroke="rgb(53,53,53)" stroke-width="1" opacity="1" d="M 39.5 110 L 50 121.5 L 41 113.5 L 39.5 110 Z " /><path fill="rgb(53,53,53)" stroke="rgb(53,53,53)" stroke-width="1" opacity="1" d="M 70.5 110 L 73 110.5 L 70.5 111 L 70.5 110 Z " /><path fill="rgb(53,53,53)" stroke="rgb(53,53,53)" stroke-width="1" opacity="1" d="M 74.5 111 L 85 111.5 L 74.5 112 L 74.5 111 Z " /><path fill="rgb(53,53,53)" stroke="rgb(53,53,53)" stroke-width="1" opacity="1" d="M 34.5 112 L 45.5 125 L 54 130 Q 55 133 52 132 L 50.5 129 L 39 119.5 L 34.5 112 Z " /><path fill="rgb(53,53,53)" stroke="rgb(53,53,53)" stroke-width="1" opacity="1" d="M 64.5 113 L 76 116.5 L 71.5 117 L 65.5 115 L 64.5 113 Z " /><path fill="rgb(53,53,53)" stroke="rgb(53,53,53)" stroke-width="1" opacity="1" d="M 88.5 115 L 90 115.5 Q 87.9 117.9 82.5 117 L 82.5 116 Q 87.3 117.3 88.5 115 Z " /><path fill="rgb(53,53,53)" stroke="rgb(53,53,53)" stroke-width="1" opacity="1" d="M 121.5 116 L 111.5 127 L 121.5 116 Z " /><path fill="rgb(53,53,53)" stroke="rgb(53,53,53)" stroke-width="1" opacity="1" d="M 110.5 119 L 107.5 123 L 110.5 119 Z " /><path fill="rgb(53,53,53)" stroke="rgb(53,53,53)" stroke-width="1" opacity="1" d="M 51.5 122 L 63 128.5 L 61.5 129 L 53.5 125 L 51.5 122 Z " /><path fill="rgb(53,53,53)" stroke="rgb(53,53,53)" stroke-width="1" opacity="1" d="M 105.5 123 L 104.5 125 L 105.5 123 Z " /><path fill="rgb(53,53,53)" stroke="rgb(53,53,53)" stroke-width="1" opacity="1" d="M 98.5 127 L 97.5 129 L 95 128.5 L 98.5 127 Z " /><path fill="rgb(53,53,53)" stroke="rgb(53,53,53)" stroke-width="1" opacity="1" d="M 109.5 127 L 108.5 129 L 106 130.5 Q 106.7 133.1 104 132 Q 102.9 129.3 105.5 130 L 109.5 127 Z " /><path fill="rgb(53,53,53)" stroke="rgb(53,53,53)" stroke-width="1" opacity="1" d="M 64.5 129 L 70 130.5 L 67.5 131 L 64.5 130 L 64.5 129 Z " /><path fill="rgb(53,53,53)" stroke="rgb(53,53,53)" stroke-width="1" opacity="1" d="M 72.5 131 L 78 131.5 L 72.5 132 L 72.5 131 Z " /><path fill="rgb(53,53,53)" stroke="rgb(53,53,53)" stroke-width="1" opacity="1" d="M 80.5 131 L 87 131.5 L 80.5 132 L 80.5 131 Z " /><path fill="rgb(0,0,0)" stroke="rgb(0,0,0)" stroke-width="1" opacity="1" d="M 0 0 L 162 0 L 162 171 L 0 171 L 0 0 Z M 32 37 L 32 59 L 34 59 L 39 51 Q 45 43 54 39 L 54 37 L 32 37 Z M 71 37 L 64 39 L 50 47 Q 36 57 32 76 L 32 94 L 35 104 L 41 114 Q 52 128 73 132 L 87 132 L 98 129 L 113 119 L 124 102 L 127 91 L 126 74 L 118 57 Q 110 46 98 40 L 88 37 L 71 37 Z M 104 37 L 104 39 L 117 47 L 124 58 L 127 59 L 127 37 L 104 37 Z M 33 109 L 32 132 L 54 132 L 54 130 L 46 125 L 33 109 Z M 126 109 L 122 116 Q 115 126 104 130 L 105 132 L 127 132 L 127 111 L 126 109 Z " /><path fill="rgb(0,0,0)" stroke="rgb(0,0,0)" stroke-width="1" opacity="1" d="M 74.5 52 L 82.5 52 L 91.5 54 L 106 65.5 L 111 76.5 L 112 85.5 L 110 95.5 Q 106.9 103.9 100.5 109 Q 92.5 117 76.5 117 L 65.5 114 L 55 106.5 L 47 90.5 L 47 78.5 Q 49.9 66.9 57.5 60 Q 64.1 54.1 74.5 52 Z M 74 57 L 64 61 Q 55 67 52 79 Q 50 94 57 102 L 68 110 L 75 112 L 85 112 L 96 107 Q 105 101 107 89 L 107 81 L 103 70 Q 98 62 89 58 L 74 57 Z " /><path fill="rgb(0,0,0)" stroke="rgb(0,0,0)" stroke-width="1" opacity="1" d="M 76.5 72 Q 85.5 71.5 89 76.5 Q 92 79.5 92 85.5 L 91 89.5 L 87.5 94 Q 84.7 97.7 77.5 97 Q 71 95.5 68 90.5 L 67 81.5 L 70 75 L 76.5 72 Z M 77 77 L 73 79 L 72 82 Q 71 91 77 92 L 84 91 L 87 87 Q 88 81 85 80 Q 83 76 77 77 Z " /><path fill="rgb(195,195,195)" stroke="rgb(195,195,195)" stroke-width="1" opacity="1" d="M 32.5 38 L 33.5 56 L 35 55.5 L 32 57.5 L 32.5 38 Z " /><path fill="rgb(195,195,195)" stroke="rgb(195,195,195)" stroke-width="1" opacity="1" d="M 51.5 38 L 53 38.5 Q 44.4 42.4 39 49.5 L 35.5 54 L 38 50.5 L 45.5 42 L 51.5 38 Z " /><path fill="rgb(195,195,195)" stroke="rgb(195,195,195)" stroke-width="1" opacity="1" d="M 69.5 38 L 77 38.5 L 66.5 40 L 66.5 39 L 69.5 38 Z " /><path fill="rgb(195,195,195)" stroke="rgb(195,195,195)" stroke-width="1" opacity="1" d="M 82.5 38 L 89 38.5 L 82.5 39 L 82.5 38 Z " /><path fill="rgb(195,195,195)" stroke="rgb(195,195,195)" stroke-width="1" opacity="1" d="M 106.5 38 L 123 52.5 L 126 57.5 L 124 56.5 Q 120.3 47.7 112.5 43 Q 107.3 41.2 106.5 38 Z " /><path fill="rgb(195,195,195)" stroke="rgb(195,195,195)" stroke-width="1" opacity="1" d="M 60.5 41 L 62 41.5 L 55.5 45 L 56.5 43 L 60.5 41 Z " /><path fill="rgb(195,195,195)" stroke="rgb(195,195,195)" stroke-width="1" opacity="1" d="M 96.5 41 L 105 45.5 L 103.5 45 L 96.5 42 L 96.5 41 Z " /><path fill="rgb(195,195,195)" stroke="rgb(195,195,195)" stroke-width="1" opacity="1" d="M 53.5 45 L 52.5 47 L 53.5 45 Z " /><path fill="rgb(195,195,195)" stroke="rgb(195,195,195)" stroke-width="1" opacity="1" d="M 106.5 46 L 110.5 51 L 106.5 46 Z " /><path fill="rgb(195,195,195)" stroke="rgb(195,195,195)" stroke-width="1" opacity="1" d="M 50.5 47 L 42 56.5 L 34.5 73 L 34 70.5 Q 38.9 55.4 50.5 47 Z " /><path fill="rgb(195,195,195)" stroke="rgb(195,195,195)" stroke-width="1" opacity="1" d="M 71.5 51 L 78 51.5 Q 69.3 51.3 64.5 55 L 65.5 53 L 71.5 51 Z " /><path fill="rgb(195,195,195)" stroke="rgb(195,195,195)" stroke-width="1" opacity="1" d="M 80.5 51 Q 86.9 50.1 90 52.5 L 87.5 53 Q 86 50.5 80.5 52 L 80.5 51 Z " /><path fill="rgb(195,195,195)" stroke="rgb(195,195,195)" stroke-width="1" opacity="1" d="M 112.5 52 L 119 59.5 L 117 58.5 L 112.5 52 Z " /><path fill="rgb(195,195,195)" stroke="rgb(195,195,195)" stroke-width="1" opacity="1" d="M 91.5 53 Q 97.3 54.3 100 58.5 L 96.5 56 L 91.5 54 L 91.5 53 Z " /><path fill="rgb(195,195,195)" stroke="rgb(195,195,195)" stroke-width="1" opacity="1" d="M 60.5 56 L 57.5 60 L 55.5 61 L 56.5 59 L 60.5 56 Z " /><path fill="rgb(195,195,195)" stroke="rgb(195,195,195)" stroke-width="1" opacity="1" d="M 72.5 58 L 77 58.5 L 72.5 59 L 72.5 58 Z " /><path fill="rgb(195,195,195)" stroke="rgb(195,195,195)" stroke-width="1" opacity="1" d="M 82.5 58 L 86 58.5 L 82.5 59 L 82.5 58 Z " /><path fill="rgb(195,195,195)" stroke="rgb(195,195,195)" stroke-width="1" opacity="1" d="M 69.5 59 L 71 59.5 Q 62.5 62 58 68.5 L 56.5 71 L 57 69.5 L 63.5 62 L 69.5 59 Z " /><path fill="rgb(195,195,195)" stroke="rgb(195,195,195)" stroke-width="1" opacity="1" d="M 101.5 59 Q 109.8 64.7 112 76.5 L 111 76.5 Q 108.4 64.7 101.5 59 Z " /><path fill="rgb(195,195,195)" stroke="rgb(195,195,195)" stroke-width="1" opacity="1" d="M 54.5 62 L 51.5 66 L 54.5 62 Z " /><path fill="rgb(195,195,195)" stroke="rgb(195,195,195)" stroke-width="1" opacity="1" d="M 94.5 62 L 96.5 65 L 94.5 62 Z " /><path fill="rgb(195,195,195)" stroke="rgb(195,195,195)" stroke-width="1" opacity="1" d="M 98.5 66 Q 102.8 68.8 104 74.5 L 103 74.5 L 98.5 66 Z " /><path fill="rgb(195,195,195)" stroke="rgb(195,195,195)" stroke-width="1" opacity="1" d="M 49.5 69 L 49 70.5 L 48.5 72 L 48 70.5 L 49.5 69 Z " /><path fill="rgb(195,195,195)" stroke="rgb(195,195,195)" stroke-width="1" opacity="1" d="M 74.5 71 L 78 71.5 L 71.5 74 L 72.5 72 L 74.5 71 Z " /><path fill="rgb(195,195,195)" stroke="rgb(195,195,195)" stroke-width="1" opacity="1" d="M 81.5 71 L 87 73.5 L 85.5 73 L 81.5 72 L 81.5 71 Z " /><path fill="rgb(195,195,195)" stroke="rgb(195,195,195)" stroke-width="1" opacity="1" d="M 33.5 74 L 34 79.5 L 33 79.5 L 33.5 74 Z " /><path fill="rgb(195,195,195)" stroke="rgb(195,195,195)" stroke-width="1" opacity="1" d="M 54.5 74 L 55 75.5 L 53.5 80 L 53 76.5 L 54.5 74 Z " /><path fill="rgb(195,195,195)" stroke="rgb(195,195,195)" stroke-width="1" opacity="1" d="M 88.5 74 L 89.5 76 L 88.5 74 Z " /><path fill="rgb(195,195,195)" stroke="rgb(195,195,195)" stroke-width="1" opacity="1" d="M 68.5 76 L 67.5 78 L 68.5 76 Z " /><path fill="rgb(195,195,195)" stroke="rgb(195,195,195)" stroke-width="1" opacity="1" d="M 90.5 77 L 92 79.5 L 91 79.5 L 90.5 77 Z " /><path fill="rgb(195,195,195)" stroke="rgb(195,195,195)" stroke-width="1" opacity="1" d="M 76.5 78 L 78 78.5 L 75.5 80 L 76.5 78 Z " /><path fill="rgb(195,195,195)" stroke="rgb(195,195,195)" stroke-width="1" opacity="1" d="M 112.5 78 L 113 90.5 L 112 90.5 L 112.5 78 Z " /><path fill="rgb(195,195,195)" stroke="rgb(195,195,195)" stroke-width="1" opacity="1" d="M 125.5 78 L 126 82.5 L 125 82.5 L 125.5 78 Z " /><path fill="rgb(195,195,195)" stroke="rgb(195,195,195)" stroke-width="1" opacity="1" d="M 83.5 79 Q 86.8 80.7 86 86.5 L 84 87.5 L 85 82.5 L 83.5 79 Z " /><path fill="rgb(195,195,195)" stroke="rgb(195,195,195)" stroke-width="1" opacity="1" d="M 105.5 79 L 106 88.5 L 105 88.5 L 105.5 79 Z " /><path fill="rgb(195,195,195)" stroke="rgb(195,195,195)" stroke-width="1" opacity="1" d="M 32.5 81 L 33 87.5 L 32 87.5 L 32.5 81 Z " /><path fill="rgb(195,195,195)" stroke="rgb(195,195,195)" stroke-width="1" opacity="1" d="M 52.5 81 L 53 87.5 L 52 87.5 L 52.5 81 Z " /><path fill="rgb(195,195,195)" stroke="rgb(195,195,195)" stroke-width="1" opacity="1" d="M 92.5 81 L 93 87.5 L 92 87.5 L 92.5 81 Z " /><path fill="rgb(195,195,195)" stroke="rgb(195,195,195)" stroke-width="1" opacity="1" d="M 72.5 83 L 76.5 90 L 82 90.5 L 76.5 91 Q 71.8 88.6 72.5 83 Z " /><path fill="rgb(195,195,195)" stroke="rgb(195,195,195)" stroke-width="1" opacity="1" d="M 125.5 86 L 126 90.5 L 125 90.5 L 125.5 86 Z " /><path fill="rgb(195,195,195)" stroke="rgb(195,195,195)" stroke-width="1" opacity="1" d="M 66.5 88 L 72.5 96 L 74 96.5 L 72.5 97 Q 66.3 94.1 66.5 88 Z " /><path fill="rgb(195,195,195)" stroke="rgb(195,195,195)" stroke-width="1" opacity="1" d="M 53.5 89 L 56 96.5 L 54 95.5 L 53.5 89 Z " /><path fill="rgb(195,195,195)" stroke="rgb(195,195,195)" stroke-width="1" opacity="1" d="M 91.5 89 L 92 90.5 L 88.5 95 L 89 93.5 L 91.5 89 Z " /><path fill="rgb(195,195,195)" stroke="rgb(195,195,195)" stroke-width="1" opacity="1" d="M 33.5 90 Q 34.8 103.7 42 111.5 L 39 109.5 L 33 95.5 L 33.5 90 Z " /><path fill="rgb(195,195,195)" stroke="rgb(195,195,195)" stroke-width="1" opacity="1" d="M 86.5 95 L 85.5 97 L 80.5 98 L 80.5 97 Q 85.1 97.6 86.5 95 Z " /><path fill="rgb(195,195,195)" stroke="rgb(195,195,195)" stroke-width="1" opacity="1" d="M 103.5 95 L 103 96.5 L 101.5 99 L 102 97.5 L 103.5 95 Z " /><path fill="rgb(195,195,195)" stroke="rgb(195,195,195)" stroke-width="1" opacity="1" d="M 110.5 95 L 111 96.5 Q 107.5 105.5 100.5 111 L 97.5 113 L 99.5 110 L 105 105.5 L 110.5 95 Z " /><path fill="rgb(195,195,195)" stroke="rgb(195,195,195)" stroke-width="1" opacity="1" d="M 75.5 97 L 78 97.5 L 75.5 98 L 75.5 97 Z " /><path fill="rgb(195,195,195)" stroke="rgb(195,195,195)" stroke-width="1" opacity="1" d="M 56.5 98 L 62.5 105 L 72 109.5 L 69.5 110 Q 61.8 106.8 57 100.5 L 56.5 98 Z " /><path fill="rgb(195,195,195)" stroke="rgb(195,195,195)" stroke-width="1" opacity="1" d="M 100.5 100 L 94.5 107 L 90.5 109 L 91.5 107 Q 98 105.5 100.5 100 Z " /><path fill="rgb(195,195,195)" stroke="rgb(195,195,195)" stroke-width="1" opacity="1" d="M 51.5 103 L 54.5 107 L 51.5 103 Z " /><path fill="rgb(195,195,195)" stroke="rgb(195,195,195)" stroke-width="1" opacity="1" d="M 55.5 108 L 65 114.5 L 63.5 114 Q 56.6 112 55.5 108 Z " /><path fill="rgb(195,195,195)" stroke="rgb(195,195,195)" stroke-width="1" opacity="1" d="M 86.5 109 L 89 109.5 Q 83.8 112.8 73.5 111 L 73.5 110 L 85.5 110 L 86.5 109 Z " /><path fill="rgb(195,195,195)" stroke="rgb(195,195,195)" stroke-width="1" opacity="1" d="M 118.5 109 L 117.5 111 L 118.5 109 Z " /><path fill="rgb(195,195,195)" stroke="rgb(195,195,195)" stroke-width="1" opacity="1" d="M 32 111 Q 34.7 109.9 34 112.5 L 34.5 114 L 33 113.5 L 33 131 L 50.5 131 L 50.5 129 L 52 132 L 33.5 132 L 32 130.5 L 32 111 Z " /><path fill="rgb(195,195,195)" stroke="rgb(195,195,195)" stroke-width="1" opacity="1" d="M 125.5 111 L 125 112.5 L 123 116.5 L 111.5 128 L 107 130.5 L 126 131.5 L 106 132 L 107.5 129 Q 117 125 122 116.5 L 125.5 111 Z " /><path fill="rgb(195,195,195)" stroke="rgb(195,195,195)" stroke-width="1" opacity="1" d="M 116.5 112 L 113 116.5 L 111.5 119 Q 105.5 125 96.5 128 L 96.5 127 L 112 118 L 116.5 112 Z " /><path fill="rgb(195,195,195)" stroke="rgb(195,195,195)" stroke-width="1" opacity="1" d="M 42.5 113 Q 48.5 121 58 125.5 L 56.5 125 Q 46.5 121.2 42.5 113 Z " /><path fill="rgb(195,195,195)" stroke="rgb(195,195,195)" stroke-width="1" opacity="1" d="M 35.5 115 L 38.5 119 L 35.5 115 Z " /><path fill="rgb(195,195,195)" stroke="rgb(195,195,195)" stroke-width="1" opacity="1" d="M 90.5 115 L 92 115.5 L 88.5 117 L 88.5 116 L 90.5 115 Z " /><path fill="rgb(195,195,195)" stroke="rgb(195,195,195)" stroke-width="1" opacity="1" d="M 72.5 117 L 78 117.5 L 72.5 118 L 72.5 117 Z " /><path fill="rgb(195,195,195)" stroke="rgb(195,195,195)" stroke-width="1" opacity="1" d="M 80.5 117 L 87 117.5 L 80.5 118 L 80.5 117 Z " /><path fill="rgb(195,195,195)" stroke="rgb(195,195,195)" stroke-width="1" opacity="1" d="M 39.5 120 L 49 128.5 L 46.5 127 L 39.5 120 Z " /><path fill="rgb(195,195,195)" stroke="rgb(195,195,195)" stroke-width="1" opacity="1" d="M 61.5 127 L 66 128.5 L 63.5 129 L 61.5 127 Z " /><path fill="rgb(195,195,195)" stroke="rgb(195,195,195)" stroke-width="1" opacity="1" d="M 92.5 128 L 95 128.5 Q 90.8 131.8 82.5 131 L 82.5 130 Q 89.5 131 92.5 128 Z " /><path fill="rgb(195,195,195)" stroke="rgb(195,195,195)" stroke-width="1" opacity="1" d="M 70.5 130 L 77 130.5 L 70.5 131 L 70.5 130 Z " /><path fill="rgb(254,254,254)" stroke="rgb(254,254,254)" stroke-width="1" opacity="1" d="M 33 38 L 51 38.5 L 38 49.5 L 33.5 56 L 33 38 Z " /><path fill="rgb(254,254,254)" stroke="rgb(254,254,254)" stroke-width="1" opacity="1" d="M 77.5 38 L 89.5 39 L 95.5 41 L 105.5 46 L 112 51 L 122 66.5 L 125 75.5 L 126 85.5 L 123 100.5 L 112 118 L 95.5 128 L 88.5 130 L 77.5 131 Q 75.8 128.3 69.5 130 L 58.5 126 Q 48.5 121 42 112.5 L 34 95.5 L 33 80.5 Q 35.5 79 34 73.5 L 40 59.5 L 51.5 47 L 62.5 41 L 77.5 38 Z M 72 51 Q 62 53 57 59 L 48 71 L 45 85 L 47 96 L 55 109 Q 62 115 73 118 L 87 118 L 101 111 Q 110 104 113 91 L 113 79 L 107 65 L 93 53 Q 85 49 72 51 Z " /><path fill="rgb(254,254,254)" stroke="rgb(254,254,254)" stroke-width="1" opacity="1" d="M 107.5 38 L 126 38 L 126 56.5 L 125 56.5 Q 121 47 112.5 42 L 107.5 39 L 107.5 38 Z " /><path fill="rgb(254,254,254)" stroke="rgb(254,254,254)" stroke-width="1" opacity="1" d="M 77.5 58 L 89.5 60 L 98 65 L 105 78.5 L 105 90.5 Q 102.3 100.8 94.5 106 Q 87.5 112 72.5 110 Q 63.3 107.2 58 100.5 Q 52.3 93.7 53 80.5 Q 55.2 68.7 63.5 63 L 71.5 59 Q 76.3 60.3 77.5 58 Z M 75 71 L 69 74 L 65 85 L 67 92 Q 69 97 76 98 Q 85 100 89 95 L 93 88 Q 94 79 90 76 L 84 71 L 75 71 Z " /><path fill="rgb(254,254,254)" stroke="rgb(254,254,254)" stroke-width="1" opacity="1" d="M 78.5 78 L 84 80.5 L 85 86.5 L 82.5 90 Q 75.5 91.5 74 87.5 L 73 82.5 L 74 80 L 78.5 78 Z " /><path fill="rgb(254,254,254)" stroke="rgb(254,254,254)" stroke-width="1" opacity="1" d="M 125.5 112 L 126 131 L 107 130.5 Q 117.1 125.6 123 116.5 L 125.5 112 Z " /><path fill="rgb(254,254,254)" stroke="rgb(254,254,254)" stroke-width="1" opacity="1" d="M 33.5 113 L 45.5 127 L 51 130.5 L 33 131 L 33.5 113 Z " /></svg>